<svg xmlns="http://www.w3.org/2000/svg" xmlns:xlink="http://www.w3.org/1999/xlink" width="1224" zoomAndPan="magnify" viewBox="0 0 918 1124.99995" height="1500" preserveAspectRatio="xMidYMid meet" version="1.0"><defs><g/><clipPath id="1c115a8612"><path d="M 165.628906 12 L 908 12 L 908 1113 L 165.628906 1113 Z M 165.628906 12 " clip-rule="nonzero"/></clipPath><clipPath id="5bf3a1f17c"><path d="M 165.628906 0.257812 L 918 0.257812 L 918 1125 L 165.628906 1125 Z M 165.628906 0.257812 " clip-rule="nonzero"/></clipPath><clipPath id="f682a46210"><path d="M 13 12 L 445.4375 12 L 445.4375 986.320312 L 13 986.320312 Z M 13 12 " clip-rule="nonzero"/></clipPath><clipPath id="436a81001e"><path d="M 0.855469 0.257812 L 445.4375 0.257812 L 445.4375 986.320312 L 0.855469 986.320312 Z M 0.855469 0.257812 " clip-rule="nonzero"/></clipPath></defs><rect x="-91.8" width="1101.6" fill="transparent" y="-112.499995" height="1349.99994" fill-opacity="1"/><rect x="-91.8" width="1101.6" fill="transparent" y="-112.499995" height="1349.99994" fill-opacity="1"/><g clip-path="url(#1c115a8612)"><path fill="#f5c7df" d="M 847.683594 12.941406 L -101.964844 12.941406 C -135.09375 12.941406 -161.9375 39.796875 -161.9375 72.914062 L -161.9375 847.800781 C -161.9375 880.917969 -135.09375 907.773438 -101.964844 907.773438 L 499.015625 907.773438 C 498.597656 948.148438 488.164062 1029.417969 421.515625 1112.289062 C 421.515625 1112.289062 583.339844 1115.472656 703.796875 907.773438 L 847.683594 907.773438 C 880.808594 907.773438 907.652344 880.917969 907.652344 847.800781 L 907.652344 72.914062 C 907.652344 39.796875 880.808594 12.941406 847.683594 12.941406 " fill-opacity="1" fill-rule="nonzero"/></g><g clip-path="url(#5bf3a1f17c)"><path fill="#f5c7df" d="M -101.964844 25.640625 C -128.042969 25.640625 -149.25 46.851562 -149.25 72.914062 L -149.25 847.800781 C -149.25 873.867188 -128.042969 895.074219 -101.964844 895.074219 L 499.015625 895.074219 C 502.410156 895.074219 505.660156 896.4375 508.046875 898.84375 C 510.429688 901.25 511.746094 904.519531 511.714844 907.90625 C 511.308594 946.523438 502.191406 1019.410156 449.0625 1096.550781 C 465.351562 1093.539062 487.855469 1087.5625 513.625 1075.734375 C 562.195312 1053.425781 632.699219 1005.078125 692.824219 901.402344 C 695.085938 897.492188 699.269531 895.074219 703.796875 895.074219 L 847.683594 895.074219 C 873.757812 895.074219 894.96875 873.867188 894.96875 847.800781 L 894.96875 72.914062 C 894.96875 46.851562 873.757812 25.640625 847.683594 25.640625 Z M 421.976562 1124.984375 C 421.605469 1124.984375 421.371094 1124.984375 421.273438 1124.976562 C 416.429688 1124.886719 412.070312 1122.054688 410.027344 1117.660156 C 407.972656 1113.277344 408.597656 1108.113281 411.628906 1104.335938 C 469.304688 1032.601562 483.355469 962.394531 485.867188 920.457031 L -101.964844 920.457031 C -142.035156 920.457031 -174.632812 887.871094 -174.632812 847.800781 L -174.632812 72.914062 C -174.632812 32.855469 -142.035156 0.257812 -101.964844 0.257812 L 847.683594 0.257812 C 887.75 0.257812 920.351562 32.855469 920.351562 72.914062 L 920.351562 847.800781 C 920.351562 887.871094 887.75 920.457031 847.683594 920.457031 L 711.054688 920.457031 C 647.945312 1026.308594 574.046875 1076.207031 522.730469 1099.46875 C 468.582031 1124.019531 427.972656 1124.984375 421.976562 1124.984375 " fill-opacity="1" fill-rule="nonzero"/></g><g clip-path="url(#f682a46210)"><path fill="#f5c7df" d="M 1023.28125 12.941406 L 73.632812 12.941406 C 40.507812 12.941406 13.664062 39.796875 13.664062 72.914062 L 13.664062 847.800781 C 13.664062 880.917969 40.507812 907.773438 73.632812 907.773438 L 674.617188 907.773438 C 674.199219 948.148438 663.765625 1029.417969 597.117188 1112.289062 C 597.117188 1112.289062 758.9375 1115.472656 879.394531 907.773438 L 1023.28125 907.773438 C 1056.410156 907.773438 1083.253906 880.917969 1083.253906 847.800781 L 1083.253906 72.914062 C 1083.253906 39.796875 1056.410156 12.941406 1023.28125 12.941406 " fill-opacity="1" fill-rule="nonzero"/></g><g clip-path="url(#436a81001e)"><path fill="#f5c7df" d="M 73.632812 25.640625 C 47.558594 25.640625 26.347656 46.851562 26.347656 72.914062 L 26.347656 847.800781 C 26.347656 873.867188 47.558594 895.074219 73.632812 895.074219 L 674.617188 895.074219 C 678.011719 895.074219 681.261719 896.4375 683.644531 898.84375 C 686.027344 901.25 687.347656 904.519531 687.3125 907.90625 C 686.90625 946.523438 677.789062 1019.410156 624.664062 1096.550781 C 640.953125 1093.539062 663.457031 1087.5625 689.226562 1075.734375 C 737.792969 1053.425781 808.296875 1005.078125 868.421875 901.402344 C 870.6875 897.492188 874.871094 895.074219 879.394531 895.074219 L 1023.28125 895.074219 C 1049.359375 895.074219 1070.566406 873.867188 1070.566406 847.800781 L 1070.566406 72.914062 C 1070.566406 46.851562 1049.359375 25.640625 1023.28125 25.640625 Z M 597.578125 1124.984375 C 597.203125 1124.984375 596.972656 1124.984375 596.875 1124.976562 C 592.03125 1124.886719 587.667969 1122.054688 585.625 1117.660156 C 583.574219 1113.277344 584.199219 1108.113281 587.230469 1104.335938 C 644.90625 1032.601562 658.953125 962.394531 661.46875 920.457031 L 73.632812 920.457031 C 33.566406 920.457031 0.964844 887.871094 0.964844 847.800781 L 0.964844 72.914062 C 0.964844 32.855469 33.566406 0.257812 73.632812 0.257812 L 1023.28125 0.257812 C 1063.351562 0.257812 1095.949219 32.855469 1095.949219 72.914062 L 1095.949219 847.800781 C 1095.949219 887.871094 1063.351562 920.457031 1023.28125 920.457031 L 886.65625 920.457031 C 823.542969 1026.308594 749.644531 1076.207031 698.332031 1099.46875 C 644.179688 1124.019531 603.574219 1124.984375 597.578125 1124.984375 " fill-opacity="1" fill-rule="nonzero"/></g><g fill="#f65702" fill-opacity="1"><g transform="translate(145.623394, 783.790917)"><g><path d="M 276.84375 -521.171875 C 324.53125 -521.171875 368.96875 -512.1875 410.15625 -494.21875 C 451.34375 -476.257812 484.476562 -447.925781 509.5625 -409.21875 C 534.644531 -370.507812 547.1875 -320.191406 547.1875 -258.265625 L 547.1875 0 L 320.5 0 L 320.5 -258.265625 C 320.5 -273.128906 316.316406 -284.585938 307.953125 -292.640625 C 299.597656 -300.691406 290 -305.023438 279.15625 -305.640625 C 268.320312 -306.253906 258.722656 -302.691406 250.359375 -294.953125 C 242.003906 -287.210938 237.828125 -274.984375 237.828125 -258.265625 L 237.828125 0 L 9.296875 0 L 9.296875 -651.234375 L 237.828125 -651.234375 L 237.828125 -518.375 C 250.828125 -520.238281 263.832031 -521.171875 276.84375 -521.171875 Z M 276.84375 -521.171875 "/></g></g></g><g fill="#f65702" fill-opacity="1"><g transform="translate(460.969769, 221.961469)"><g><path d="M 25.6875 2.234375 L 8.234375 0.71875 L 16.296875 -91.703125 L 33.75 -90.1875 L 30.40625 -51.90625 L 70 -48.453125 L 73.34375 -86.734375 L 90.78125 -85.203125 L 82.71875 7.21875 L 65.28125 5.6875 L 68.640625 -32.828125 L 29.046875 -36.28125 Z M 25.6875 2.234375 "/></g></g></g><g fill="#f65702" fill-opacity="1"><g transform="translate(567.059878, 234.407301)"><g><path d="M 39.015625 21.9375 C 31.160156 17.90625 25.457031 13.316406 21.90625 8.171875 C 18.351562 3.023438 16.660156 -2.507812 16.828125 -8.4375 C 16.992188 -14.363281 18.671875 -20.425781 21.859375 -26.625 L 48.828125 -79.203125 L 64.515625 -71.15625 L 37.546875 -18.578125 C 35.804688 -15.203125 34.789062 -11.898438 34.5 -8.671875 C 34.21875 -5.441406 34.992188 -2.421875 36.828125 0.390625 C 38.671875 3.203125 41.789062 5.734375 46.1875 7.984375 C 50.664062 10.285156 54.5625 11.351562 57.875 11.1875 C 61.1875 11.019531 64.066406 9.875 66.515625 7.75 C 68.972656 5.632812 71.070312 2.890625 72.8125 -0.484375 L 99.78125 -53.0625 L 115.46875 -45.015625 L 88.5 7.5625 C 85.3125 13.757812 81.363281 18.65625 76.65625 22.25 C 71.945312 25.851562 66.460938 27.710938 60.203125 27.828125 C 53.953125 27.941406 46.890625 25.976562 39.015625 21.9375 Z M 39.015625 21.9375 "/></g></g></g><g fill="#f65702" fill-opacity="1"><g transform="translate(659.321287, 289.269133)"><g><path d="M 18.546875 17.90625 L 5.953125 5.734375 L 70.375 -61 L 82.96875 -48.828125 Z M 18.546875 17.90625 "/></g></g></g><g fill="#f65702" fill-opacity="1"><g transform="translate(698.295986, 324.760925)"><g><path d="M 12.484375 22.546875 L 4 7.234375 L 85.15625 -37.703125 L 94.703125 -20.46875 L 55.0625 44.96875 L 113.140625 12.8125 L 121.625 28.140625 L 40.46875 73.078125 L 30.859375 55.734375 L 70.65625 -9.671875 Z M 12.484375 22.546875 "/></g></g></g><g fill="#f65702" fill-opacity="1"><g transform="translate(745.144607, 423.607625)"><g><path d="M 5.34375 25.21875 L 1.71875 8.09375 L 92.46875 -11.109375 L 96.09375 6.015625 Z M 5.34375 25.21875 "/></g></g></g></svg>